<?xml version="1.0" encoding="UTF-8"?>
<svg width="223px" height="195px" viewBox="0 0 223 195" version="1.1" xmlns="http://www.w3.org/2000/svg" xmlns:xlink="http://www.w3.org/1999/xlink">
    <!-- Generator: Sketch 39.1 (31720) - http://www.bohemiancoding.com/sketch -->
    <title>branch</title>
    <desc>Created with Sketch.</desc>
    <defs></defs>
    <g id="Page-1" stroke="none" stroke-width="1" fill="none" fill-rule="evenodd">
        <g id="branch" transform="translate(111.000000, 97.500000) rotate(90.000000) translate(-111.000000, -97.500000) translate(14.000000, -14.000000)" fill="#000000">
            <g id="Group">
                <path d="M0.452,75.568 C0.452,77.058 1.665,78.268 3.152,78.268 L56.638,78.268 C55.942,78.722 55.283,79.239 54.695,79.845 C49.981,84.657 50.044,92.396 54.851,97.12 C57.153,99.377 60.193,100.606 63.41,100.606 L63.415,100.606 C66.716,100.606 69.809,99.322 72.122,96.957 C74.25,94.808 75.415,91.989 75.566,88.98 C89.564,83.936 102.062,89.732 110.827,105.402 C110.948,105.624 111.164,105.742 111.344,105.932 C111.397,106.006 111.449,106.066 111.502,106.153 L36.448,106.153 C34.961,106.153 33.748,107.361 33.748,108.853 C33.748,110.337 34.961,111.553 36.448,111.553 L111.152,111.553 L111.152,186.251 C111.152,187.728 112.365,188.951 113.851,188.951 C115.338,188.951 116.551,187.727 116.551,186.251 L116.551,112.755 C122.753,119.817 130.779,125.396 141.896,128.053 C142.734,128.254 143.588,128.365 144.448,128.507 L144.448,219.553 C144.448,221.034 145.661,222.253 147.148,222.253 C148.635,222.253 149.848,221.034 149.848,219.553 L149.848,129.103 C150.407,129.124 150.934,129.204 151.483,129.204 C159.361,129.204 166.945,126.868 173.504,122.343 C183.64,115.329 190.442,103.701 192.161,90.423 C192.351,88.954 191.307,87.605 189.831,87.388 C188.322,87.187 187.004,88.229 186.799,89.726 C185.275,101.492 179.294,111.759 170.425,117.892 C164.334,122.074 157.209,124.078 149.837,123.729 L149.837,78.878 C151.43,78.728 152.97,78.253 154.277,77.372 C155.859,78.424 157.747,79.031 159.687,79.031 C161.354,79.031 162.936,78.619 164.38,77.805 C166.126,76.822 167.524,75.353 168.383,73.597 C170.234,74.219 172.29,74.295 174.215,73.729 C175.823,73.247 177.258,72.4 178.376,71.266 C179.773,69.882 180.69,68.149 181.055,66.264 C182.949,65.908 184.662,64.991 186.023,63.619 C187.172,62.49 188.027,61.043 188.512,59.431 C189.071,57.517 189.002,55.479 188.369,53.612 C190.12,52.747 191.623,51.355 192.588,49.594 C193.373,48.141 193.801,46.537 193.801,44.901 C193.801,42.958 193.226,41.083 192.155,39.501 C193.215,37.908 193.801,36.028 193.801,34.08 C193.801,32.411 193.405,30.829 192.588,29.376 C191.602,27.628 190.12,26.233 188.359,25.376 C188.992,23.512 189.066,21.477 188.502,19.538 C188.027,17.925 187.199,16.519 186.044,15.375 C184.663,13.985 182.939,13.073 181.056,12.707 C180.692,10.832 179.775,9.1 178.398,7.739 C177.27,6.59 175.82,5.735 174.216,5.25 C172.302,4.688 170.235,4.762 168.395,5.385 C167.535,3.634 166.137,2.144 164.392,1.179 C161.259,-0.55 157.209,-0.35 154.278,1.609 C151.378,-0.339 147.348,-0.55 144.164,1.179 C142.424,2.15 141.031,3.634 140.177,5.385 C138.321,4.757 136.211,4.704 134.365,5.25 C132.783,5.693 131.328,6.545 130.157,7.729 C128.786,9.111 127.869,10.837 127.51,12.708 C125.622,13.074 123.904,13.986 122.522,15.376 C121.351,16.536 120.497,17.979 120.054,19.545 C119.49,21.467 119.558,23.503 120.18,25.377 C118.43,26.234 116.943,27.629 115.972,29.377 C115.17,30.84 114.759,32.412 114.759,34.081 C114.759,36.019 115.328,37.899 116.405,39.491 C115.35,41.073 114.759,42.959 114.759,44.912 C114.759,46.56 115.16,48.142 115.972,49.616 C116.953,51.367 118.43,52.749 120.191,53.614 C119.98,54.207 119.938,54.851 119.854,55.481 C112.518,59.679 107.593,65.595 105.352,72.865 L101.661,72.865 C100.332,69.603 98.981,66.347 97.545,63.23 C88.855,44.483 81.269,28.233 63.075,25.47 C62.991,22.411 61.802,19.381 59.447,17.077 C54.804,12.502 46.74,12.584 42.185,17.227 C39.883,19.555 38.652,22.627 38.678,25.889 C38.717,29.151 40.012,32.23 42.356,34.519 C44.645,36.776 47.674,38.007 50.91,38.007 C54.203,38.007 57.32,36.71 59.632,34.334 C60.653,33.298 61.425,32.077 61.997,30.819 C75.231,32.704 81.759,42.629 89.87,59.607 C81.464,53.063 71.495,51.333 60.927,54.861 C60.323,53.398 59.416,52.064 58.248,50.924 C53.605,46.349 45.542,46.421 40.97,51.08 C38.673,53.413 37.448,56.49 37.476,59.747 C37.508,63.008 38.81,66.067 41.136,68.351 C43.443,70.619 46.478,71.855 49.705,71.855 C53.012,71.855 56.11,70.558 58.412,68.193 C60.54,66.054 61.705,63.236 61.856,60.24 C74.612,55.623 86.103,60.127 94.677,72.823 L3.163,72.823 C1.649,72.869 0.452,74.074 0.452,75.568 L0.452,75.568 Z M120.159,44.912 C120.159,43.622 120.728,42.402 121.73,41.577 L124.23,39.502 L121.73,37.424 C120.728,36.593 120.159,35.359 120.159,34.081 C120.159,33.335 120.338,32.628 120.707,31.984 C121.445,30.664 122.843,29.809 124.367,29.767 L130.347,29.598 L126.243,25.213 C125.21,24.095 124.799,22.497 125.231,21.044 C125.431,20.337 125.794,19.718 126.328,19.188 C127.145,18.368 128.242,18.004 129.798,17.941 L133.026,18.226 L132.73,15.009 C132.615,13.717 133.063,12.448 133.975,11.541 C134.502,11.001 135.124,10.645 135.852,10.434 C137.276,10.034 138.895,10.403 139.998,11.45 L144.364,15.597 L144.564,9.585 C144.617,8.068 145.471,6.653 146.779,5.915 C148.572,4.926 150.934,5.39 152.242,6.946 L154.331,9.451 L156.414,6.93 C157.674,5.369 160.053,4.937 161.813,5.915 C163.142,6.653 163.981,8.053 164.039,9.575 L164.203,15.563 L168.585,11.46 C169.692,10.429 171.375,10.034 172.746,10.44 C173.468,10.661 174.117,11.033 174.634,11.558 C175.541,12.465 175.994,13.723 175.878,15.041 L175.989,18.253 L179.221,17.947 C180.381,17.947 181.456,18.395 182.274,19.205 C182.792,19.724 183.161,20.344 183.361,21.051 C183.777,22.53 183.414,24.096 182.343,25.23 L178.239,29.604 L184.219,29.784 C185.77,29.826 187.141,30.659 187.9,31.999 C188.249,32.645 188.438,33.359 188.438,34.098 C188.438,35.385 187.869,36.616 186.867,37.431 L184.346,39.509 L186.867,41.6 C187.869,42.42 188.438,43.641 188.438,44.922 C188.438,45.65 188.249,46.378 187.9,47.015 C187.141,48.366 185.77,49.193 184.219,49.246 L178.249,49.425 L182.342,53.791 C183.397,54.915 183.786,56.513 183.36,57.955 C183.154,58.695 182.785,59.318 182.257,59.835 C181.466,60.634 180.391,61.077 178.861,61.077 L178.765,61.077 L175.522,60.779 L175.844,64.02 C175.954,65.306 175.506,66.575 174.583,67.502 C174.082,68.006 173.449,68.383 172.743,68.589 C171.276,69.011 169.674,68.605 168.577,67.573 L164.189,63.457 L164.031,69.435 C163.978,70.964 163.135,72.356 161.805,73.102 C159.991,74.102 157.67,73.648 156.384,72.087 L154.295,69.571 L152.218,72.087 C151.395,73.081 150.135,73.55 148.896,73.555 C148.421,73.149 147.841,72.88 147.167,72.88 L146.565,72.88 C145.394,72.103 144.614,70.85 144.572,69.424 L144.403,63.42 L140.015,67.557 C138.908,68.593 137.284,68.986 135.849,68.572 C135.132,68.366 134.499,67.994 133.983,67.481 C133.06,66.558 132.606,65.3 132.738,64.003 L132.643,60.784 L129.4,61.071 C128.24,61.071 127.143,60.628 126.31,59.798 C125.803,59.289 125.44,58.669 125.239,57.939 C124.807,56.486 125.192,54.904 126.252,53.775 L130.407,49.39 L124.375,49.229 C122.824,49.179 121.464,48.359 120.715,47.025 C120.338,46.354 120.159,45.652 120.159,44.912 L120.159,44.912 Z M120.823,61.249 C121.277,62.121 121.836,62.938 122.511,63.614 C123.893,64.995 125.607,65.913 127.49,66.275 C127.853,68.15 128.771,69.882 130.158,71.277 C130.786,71.907 131.518,72.426 132.304,72.864 L111.158,72.864 C112.992,68.191 116.225,64.289 120.823,61.249 L120.823,61.249 Z M109.707,78.269 L144.448,78.269 L144.448,123.062 C144.015,122.967 143.584,122.93 143.151,122.819 C127.12,118.991 118.197,108.391 111.627,95.814 C109.538,89.348 108.927,83.463 109.707,78.269 L109.707,78.269 Z M104.191,78.269 C104.165,78.496 104.159,78.733 104.128,78.965 C104.038,78.733 103.948,78.501 103.854,78.269 L104.191,78.269 L104.191,78.269 Z M55.773,30.576 C53.221,33.179 48.723,33.21 46.141,30.674 C44.833,29.406 44.105,27.676 44.082,25.851 C44.071,24.032 44.77,22.321 46.038,21.018 C47.328,19.7 49.073,18.972 50.903,18.972 C52.696,18.972 54.392,19.668 55.678,20.91 C58.349,23.572 58.399,27.896 55.773,30.576 L55.773,30.576 Z M54.531,64.455 C51.989,67.041 47.507,67.102 44.893,64.526 C43.596,63.255 42.869,61.544 42.852,59.73 C42.833,57.905 43.532,56.194 44.795,54.892 C46.085,53.574 47.83,52.846 49.665,52.846 C51.464,52.846 53.154,53.542 54.446,54.794 C55.74,56.063 56.482,57.781 56.492,59.606 C56.514,61.431 55.823,63.155 54.531,64.455 L54.531,64.455 Z M98.031,78.269 C98.127,78.501 98.211,78.712 98.305,78.944 C99.349,81.552 100.425,84.215 101.543,86.87 C93.572,81.578 84.349,80.386 74.656,83.609 C74.047,82.145 73.15,80.819 71.977,79.677 C71.415,79.134 70.822,78.67 70.186,78.258 L98.031,78.269 L98.031,78.269 L98.031,78.269 Z M63.419,81.583 C65.212,81.583 66.907,82.271 68.194,83.534 C69.489,84.797 70.219,86.509 70.24,88.333 C70.25,90.16 69.554,91.877 68.286,93.171 C66.994,94.484 65.262,95.207 63.429,95.207 C61.626,95.207 59.941,94.511 58.646,93.269 C55.962,90.635 55.925,86.308 58.543,83.632 C59.836,82.313 61.568,81.583 63.419,81.583 L63.419,81.583 Z" id="Shape"></path>
                <path d="M154.352,61.776 C166.703,61.776 176.764,51.727 176.764,39.372 C176.764,27.016 166.702,16.968 154.352,16.968 C142.002,16.968 131.94,27.016 131.94,39.372 C131.939,51.728 142.002,61.776 154.352,61.776 L154.352,61.776 Z M145.703,53.947 C143.204,52.455 141.132,50.356 139.682,47.822 L144.332,43.179 L150.392,49.254 L145.703,53.947 L145.703,53.947 Z M148.135,39.356 L154.21,33.281 L160.284,39.356 L154.21,45.431 L148.135,39.356 L148.135,39.356 Z M154.352,56.376 C153.288,56.376 152.243,56.257 151.231,56.052 L154.226,53.057 L157.252,56.092 C156.293,56.252 155.338,56.376 154.352,56.376 L154.352,56.376 Z M162.821,54.032 L158.027,49.249 L164.102,43.174 L168.927,48.002 C167.44,50.501 165.342,52.571 162.821,54.032 L162.821,54.032 Z M171.042,36.234 C171.232,37.249 171.375,38.298 171.375,39.366 C171.375,40.431 171.259,41.473 171.042,42.477 L167.921,39.355 L171.042,36.234 L171.042,36.234 Z M162.8,24.696 C165.331,26.159 167.425,28.216 168.917,30.726 L164.103,35.543 L158.028,29.468 L162.8,24.696 L162.8,24.696 Z M154.352,22.362 C155.333,22.362 156.283,22.486 157.21,22.66 L154.21,25.661 L151.235,22.686 C152.253,22.481 153.281,22.362 154.352,22.362 L154.352,22.362 Z M145.725,24.785 L150.392,29.463 L144.332,35.538 L139.682,30.894 C141.142,28.371 143.215,26.278 145.725,24.785 L145.725,24.785 Z M137.335,39.366 C137.335,38.367 137.445,37.423 137.625,36.476 L140.515,39.355 L137.625,42.245 C137.467,41.305 137.335,40.355 137.335,39.366 L137.335,39.366 Z" id="Shape"></path>
            </g>
        </g>
    </g>
</svg>